<mxfile host="app.diagrams.net" modified="2023-08-10T14:16:09.490Z" agent="Mozilla/5.0 (X11; Ubuntu; Linux x86_64; rv:109.0) Gecko/20100101 Firefox/116.0" etag="o0S0HAAwrlzwOQJ86xKc" version="21.6.7" type="github">
  <diagram name="Page-1" id="T80rOR9vDIjqRzHl7qig">
    <mxGraphModel dx="3050" dy="4081" grid="1" gridSize="10" guides="1" tooltips="1" connect="1" arrows="1" fold="1" page="1" pageScale="1" pageWidth="850" pageHeight="1100" math="0" shadow="0">
      <root>
        <mxCell id="0" />
        <mxCell id="1" parent="0" />
        <mxCell id="cB3qJ_cgSJbhxKvkDimK-1" value="Empleados" style="swimlane;whiteSpace=wrap;html=1;fillColor=#d5e8d4;strokeColor=#82b366;gradientColor=#97d077;" parent="1" vertex="1" collapsed="1">
          <mxGeometry x="80" y="-161" width="120" height="40" as="geometry">
            <mxRectangle x="295" y="-110" width="160" height="180" as="alternateBounds" />
          </mxGeometry>
        </mxCell>
        <mxCell id="cB3qJ_cgSJbhxKvkDimK-2" value="&lt;div&gt;Id_Empleado&lt;/div&gt;&lt;div&gt;Nombre&lt;/div&gt;&lt;div&gt;Apellido&lt;/div&gt;&lt;div&gt;FechaNacimiento&lt;/div&gt;&lt;div&gt;DireccionResidencial&lt;/div&gt;&lt;div&gt;Telefono&lt;/div&gt;&lt;div&gt;Correo&lt;/div&gt;&lt;div&gt;Id_Cargo&lt;/div&gt;" style="rounded=0;whiteSpace=wrap;html=1;" parent="cB3qJ_cgSJbhxKvkDimK-1" vertex="1">
          <mxGeometry x="10" y="35" width="140" height="133" as="geometry" />
        </mxCell>
        <mxCell id="cB3qJ_cgSJbhxKvkDimK-3" value="HorariosEmpleados" style="swimlane;whiteSpace=wrap;html=1;fillColor=#d5e8d4;strokeColor=#82b366;gradientColor=#97d077;" parent="1" vertex="1" collapsed="1">
          <mxGeometry x="81" y="480" width="150" height="40" as="geometry">
            <mxRectangle x="520" y="80" width="160" height="130" as="alternateBounds" />
          </mxGeometry>
        </mxCell>
        <mxCell id="cB3qJ_cgSJbhxKvkDimK-4" value="&lt;div&gt;Id_Horario&lt;/div&gt;&lt;div&gt;Id_Empleado&lt;/div&gt;&lt;div&gt;Fecha&lt;/div&gt;&lt;div&gt;HoraEntrada&lt;/div&gt;&lt;div&gt;HoraSalida&lt;br&gt;&lt;/div&gt;" style="rounded=0;whiteSpace=wrap;html=1;" parent="cB3qJ_cgSJbhxKvkDimK-3" vertex="1">
          <mxGeometry x="10" y="34" width="140" height="86" as="geometry" />
        </mxCell>
        <mxCell id="cB3qJ_cgSJbhxKvkDimK-8" value="Marcas" style="swimlane;whiteSpace=wrap;html=1;fillColor=#d5e8d4;strokeColor=#82b366;gradientColor=#97d077;" parent="1" vertex="1" collapsed="1">
          <mxGeometry x="80" y="79" width="120" height="40" as="geometry">
            <mxRectangle x="830" y="-120" width="130" height="100" as="alternateBounds" />
          </mxGeometry>
        </mxCell>
        <mxCell id="cB3qJ_cgSJbhxKvkDimK-9" value="&lt;div&gt;Id_Marca&lt;/div&gt;&lt;div&gt;NombreMarca&lt;br&gt;&lt;/div&gt;" style="rounded=0;whiteSpace=wrap;html=1;" parent="cB3qJ_cgSJbhxKvkDimK-8" vertex="1">
          <mxGeometry x="10" y="35" width="110" height="53" as="geometry" />
        </mxCell>
        <mxCell id="cB3qJ_cgSJbhxKvkDimK-10" value="Modelos" style="swimlane;whiteSpace=wrap;html=1;fillColor=#d5e8d4;strokeColor=#82b366;gradientColor=#97d077;" parent="1" vertex="1" collapsed="1">
          <mxGeometry x="80" y="-81" width="120" height="40" as="geometry">
            <mxRectangle x="80" y="100" width="150" height="110" as="alternateBounds" />
          </mxGeometry>
        </mxCell>
        <mxCell id="cB3qJ_cgSJbhxKvkDimK-11" value="&lt;div&gt;Id_Modelo&lt;/div&gt;&lt;div&gt;Id_Marca&lt;br&gt;&lt;/div&gt;NombreModelo" style="rounded=0;whiteSpace=wrap;html=1;" parent="cB3qJ_cgSJbhxKvkDimK-10" vertex="1">
          <mxGeometry x="9" y="31" width="132" height="69" as="geometry" />
        </mxCell>
        <mxCell id="cB3qJ_cgSJbhxKvkDimK-14" value="TipoVehiculo" style="swimlane;whiteSpace=wrap;html=1;fillColor=#d5e8d4;gradientColor=#97d077;strokeColor=#82b366;" parent="1" vertex="1" collapsed="1">
          <mxGeometry x="80" y="2" width="120" height="40" as="geometry">
            <mxRectangle x="280" y="120" width="175" height="200" as="alternateBounds" />
          </mxGeometry>
        </mxCell>
        <mxCell id="cB3qJ_cgSJbhxKvkDimK-15" value="&lt;div style=&quot;font-size: 14px;&quot;&gt;&lt;font style=&quot;font-size: 14px;&quot;&gt;Id_Vehiculo&lt;/font&gt;&lt;/div&gt;&lt;div style=&quot;font-size: 14px;&quot;&gt;&lt;font style=&quot;font-size: 14px;&quot;&gt;Id_Cliente&lt;br&gt;&lt;/font&gt;&lt;/div&gt;&lt;div style=&quot;font-size: 14px;&quot;&gt;&lt;font style=&quot;font-size: 14px;&quot;&gt;Id_TipoVehiculo&lt;/font&gt;&lt;/div&gt;&lt;div style=&quot;font-size: 14px;&quot;&gt;&lt;font style=&quot;font-size: 14px;&quot;&gt;Id_Marca&lt;/font&gt;&lt;/div&gt;&lt;div style=&quot;font-size: 14px;&quot;&gt;&lt;font style=&quot;font-size: 14px;&quot;&gt;Id_Modelo&lt;/font&gt;&lt;/div&gt;&lt;div style=&quot;font-size: 14px;&quot;&gt;&lt;font style=&quot;font-size: 14px;&quot;&gt;NumeroSerie&lt;/font&gt;&lt;/div&gt;&lt;div style=&quot;font-size: 14px;&quot;&gt;&lt;font style=&quot;font-size: 14px;&quot;&gt;Kilometraje&lt;br&gt;&lt;/font&gt;&lt;/div&gt;&lt;div style=&quot;font-size: 14px;&quot;&gt;&lt;font style=&quot;font-size: 14px;&quot;&gt;TipoMotor&lt;font style=&quot;font-size: 14px;&quot;&gt;&lt;br&gt;&lt;/font&gt;&lt;/font&gt;&lt;/div&gt;" style="rounded=0;whiteSpace=wrap;html=1;" parent="cB3qJ_cgSJbhxKvkDimK-14" vertex="1">
          <mxGeometry x="13" y="31" width="149" height="159" as="geometry" />
        </mxCell>
        <mxCell id="cB3qJ_cgSJbhxKvkDimK-18" value="Diagnostico" style="swimlane;whiteSpace=wrap;html=1;fillColor=#f8cecc;gradientColor=#ea6b66;strokeColor=#b85450;" parent="1" vertex="1" collapsed="1">
          <mxGeometry x="80" y="-241" width="120" height="40" as="geometry">
            <mxRectangle x="90" y="-140" width="150" height="180" as="alternateBounds" />
          </mxGeometry>
        </mxCell>
        <mxCell id="cB3qJ_cgSJbhxKvkDimK-19" value="&lt;div&gt;Id_Diagnostico&lt;/div&gt;&lt;div&gt;Id_Vehiculo&lt;/div&gt;&lt;div&gt;Id_Empleado&lt;/div&gt;&lt;div&gt;Fecha&lt;/div&gt;&lt;div&gt;Descripcion&lt;/div&gt;&lt;div&gt;FallasDetectadas&lt;/div&gt;&lt;div&gt;Solucion&lt;/div&gt;&lt;div&gt;CostoReparacion&lt;br&gt;&lt;/div&gt;" style="rounded=0;whiteSpace=wrap;html=1;" parent="cB3qJ_cgSJbhxKvkDimK-18" vertex="1">
          <mxGeometry x="9" y="31" width="131" height="139" as="geometry" />
        </mxCell>
        <mxCell id="cB3qJ_cgSJbhxKvkDimK-21" value="SolucionesDiasgnostico" style="swimlane;whiteSpace=wrap;html=1;fillColor=#d5e8d4;gradientColor=#97d077;strokeColor=#82b366;" parent="1" vertex="1" collapsed="1">
          <mxGeometry x="80" y="643" width="170" height="40" as="geometry">
            <mxRectangle x="500" y="260" width="170" height="120" as="alternateBounds" />
          </mxGeometry>
        </mxCell>
        <mxCell id="cB3qJ_cgSJbhxKvkDimK-22" value="&lt;div&gt;Id_SolucionDiagnostico&lt;/div&gt;&lt;div&gt;Id_Diagnostico&lt;/div&gt;&lt;div&gt;DescripcionSolucion&lt;/div&gt;" style="rounded=0;whiteSpace=wrap;html=1;" parent="cB3qJ_cgSJbhxKvkDimK-21" vertex="1">
          <mxGeometry x="10" y="33" width="150" height="77" as="geometry" />
        </mxCell>
        <mxCell id="cB3qJ_cgSJbhxKvkDimK-36" value="Factura" style="swimlane;whiteSpace=wrap;html=1;fillColor=#f8cecc;gradientColor=#ea6b66;strokeColor=#b85450;startSize=23;" parent="cB3qJ_cgSJbhxKvkDimK-21" vertex="1" collapsed="1">
          <mxGeometry x="-19" y="20" width="180" height="40" as="geometry">
            <mxRectangle x="1080" y="40" width="180" height="220" as="alternateBounds" />
          </mxGeometry>
        </mxCell>
        <mxCell id="cB3qJ_cgSJbhxKvkDimK-37" value="&lt;div&gt;Id_Factura&lt;/div&gt;&lt;div&gt;FechaEmision&lt;/div&gt;&lt;div&gt;Id_Cliente&lt;/div&gt;&lt;div&gt;Id_Vehiculo&lt;/div&gt;&lt;div&gt;Id_Diagnostico&lt;/div&gt;&lt;div&gt;Id_Reparacion&lt;/div&gt;&lt;div&gt;Subtotal&lt;/div&gt;&lt;div&gt;Impuestos&lt;/div&gt;&lt;div&gt;Descuentos&lt;/div&gt;&lt;div&gt;Total&lt;br&gt;&lt;/div&gt;" style="rounded=0;whiteSpace=wrap;html=1;" parent="cB3qJ_cgSJbhxKvkDimK-36" vertex="1">
          <mxGeometry x="16" y="37" width="150" height="170" as="geometry" />
        </mxCell>
        <mxCell id="cB3qJ_cgSJbhxKvkDimK-23" value="FallasDiagnostico" style="swimlane;whiteSpace=wrap;html=1;fillColor=#d5e8d4;gradientColor=#97d077;strokeColor=#82b366;" parent="1" vertex="1" collapsed="1">
          <mxGeometry x="81" y="400" width="140" height="40" as="geometry">
            <mxRectangle x="55" y="250" width="200" height="105" as="alternateBounds" />
          </mxGeometry>
        </mxCell>
        <mxCell id="cB3qJ_cgSJbhxKvkDimK-24" value="&lt;div&gt;Id_FallasDiagnostico&lt;/div&gt;&lt;div&gt;Id_DIagnostico&lt;/div&gt;&lt;div&gt;DescripcionFalla&lt;/div&gt;" style="rounded=0;whiteSpace=wrap;html=1;" parent="cB3qJ_cgSJbhxKvkDimK-23" vertex="1">
          <mxGeometry x="10" y="33" width="180" height="60" as="geometry" />
        </mxCell>
        <mxCell id="cB3qJ_cgSJbhxKvkDimK-26" value="Clientes" style="swimlane;whiteSpace=wrap;html=1;fillColor=#d5e8d4;gradientColor=#97d077;strokeColor=#82b366;" parent="1" vertex="1" collapsed="1">
          <mxGeometry x="81" y="320" width="122" height="40" as="geometry">
            <mxRectangle x="490" y="-140" width="135" height="140" as="alternateBounds" />
          </mxGeometry>
        </mxCell>
        <mxCell id="cB3qJ_cgSJbhxKvkDimK-27" value="&lt;div&gt;Id_Clientes&lt;/div&gt;&lt;div&gt;Nombre&lt;/div&gt;&lt;div&gt;Apellido&lt;/div&gt;&lt;div&gt;Telefono&lt;br&gt;&lt;/div&gt;&lt;div&gt;Correo&lt;/div&gt;&lt;div&gt;Direccion&lt;br&gt;&lt;/div&gt;" style="rounded=0;whiteSpace=wrap;html=1;" parent="cB3qJ_cgSJbhxKvkDimK-26" vertex="1">
          <mxGeometry x="11" y="33" width="113" height="97" as="geometry" />
        </mxCell>
        <mxCell id="cB3qJ_cgSJbhxKvkDimK-29" value="&lt;div&gt;Vehiculo&lt;/div&gt;" style="swimlane;whiteSpace=wrap;html=1;fillColor=#f8cecc;gradientColor=#ea6b66;strokeColor=#b85450;" parent="1" vertex="1">
          <mxGeometry x="1240" y="203" width="140" height="140" as="geometry">
            <mxRectangle x="50" y="-20" width="180" height="40" as="alternateBounds" />
          </mxGeometry>
        </mxCell>
        <mxCell id="cB3qJ_cgSJbhxKvkDimK-30" value="&lt;div&gt;Id_Vehiculo&lt;/div&gt;&lt;div&gt;Id_Cliente&lt;/div&gt;&lt;div&gt;FechaCompra&lt;/div&gt;&lt;div&gt;KilometrajeInicial&lt;br&gt;&lt;/div&gt;" style="rounded=0;whiteSpace=wrap;html=1;" parent="cB3qJ_cgSJbhxKvkDimK-29" vertex="1">
          <mxGeometry x="10.5" y="33" width="119" height="97" as="geometry" />
        </mxCell>
        <mxCell id="cB3qJ_cgSJbhxKvkDimK-38" value="Reparaciones" style="swimlane;whiteSpace=wrap;html=1;fillColor=#d5e8d4;gradientColor=#97d077;strokeColor=#82b366;startSize=23;" parent="1" vertex="1" collapsed="1">
          <mxGeometry x="80" y="723" width="180" height="40" as="geometry">
            <mxRectangle x="710" y="40" width="190" height="140" as="alternateBounds" />
          </mxGeometry>
        </mxCell>
        <mxCell id="cB3qJ_cgSJbhxKvkDimK-39" value="&lt;div&gt;Id_Reparaciones&lt;/div&gt;&lt;div&gt;Fecha&lt;/div&gt;&lt;div&gt;Id_Diagnostico&lt;br&gt;&lt;/div&gt;&lt;div&gt;Id_Factura&lt;/div&gt;&lt;div&gt;Id_Cliente&lt;/div&gt;&lt;div&gt;Id_vehiculo&lt;br&gt;&lt;/div&gt;" style="rounded=0;whiteSpace=wrap;html=1;" parent="cB3qJ_cgSJbhxKvkDimK-38" vertex="1">
          <mxGeometry x="11" y="33" width="169" height="97" as="geometry" />
        </mxCell>
        <mxCell id="ILn246hxc0myOcRo-HGs-21" style="edgeStyle=orthogonalEdgeStyle;rounded=0;orthogonalLoop=1;jettySize=auto;html=1;exitX=0.5;exitY=0;exitDx=0;exitDy=0;entryX=0;entryY=0.5;entryDx=0;entryDy=0;" parent="1" source="ILn246hxc0myOcRo-HGs-1" target="ILn246hxc0myOcRo-HGs-2" edge="1">
          <mxGeometry relative="1" as="geometry" />
        </mxCell>
        <mxCell id="ILn246hxc0myOcRo-HGs-22" style="edgeStyle=orthogonalEdgeStyle;rounded=0;orthogonalLoop=1;jettySize=auto;html=1;exitX=0.5;exitY=1;exitDx=0;exitDy=0;entryX=0;entryY=0.75;entryDx=0;entryDy=0;" parent="1" source="ILn246hxc0myOcRo-HGs-1" target="ILn246hxc0myOcRo-HGs-4" edge="1">
          <mxGeometry relative="1" as="geometry" />
        </mxCell>
        <mxCell id="ILn246hxc0myOcRo-HGs-1" value="&lt;font color=&quot;#ffffff&quot;&gt;&lt;span style=&quot;background-color: rgb(51, 0, 102);&quot;&gt;Usuario&lt;/span&gt;&lt;/font&gt;" style="swimlane;whiteSpace=wrap;html=1;fillColor=#330066;strokeColor=#330066;" parent="1" vertex="1">
          <mxGeometry x="-999" y="-1437" width="120" height="120" as="geometry" />
        </mxCell>
        <mxCell id="ILn246hxc0myOcRo-HGs-2" value="&lt;div&gt;&lt;font color=&quot;#ffffff&quot;&gt;Roll&lt;/font&gt;&lt;/div&gt;" style="swimlane;whiteSpace=wrap;html=1;strokeColor=#330066;fillColor=#330066;" parent="1" vertex="1">
          <mxGeometry x="-839" y="-1517" width="121" height="120" as="geometry" />
        </mxCell>
        <mxCell id="ILn246hxc0myOcRo-HGs-4" value="&lt;div&gt;&lt;font color=&quot;#ffffff&quot;&gt;Cliente&lt;/font&gt;&lt;/div&gt;" style="swimlane;whiteSpace=wrap;html=1;strokeColor=#330066;fillColor=#330066;" parent="1" vertex="1">
          <mxGeometry x="-839" y="-1357" width="120" height="120" as="geometry" />
        </mxCell>
        <mxCell id="ILn246hxc0myOcRo-HGs-6" value="Automovil" style="swimlane;whiteSpace=wrap;html=1;strokeColor=#82b366;fillColor=#d5e8d4;startSize=23;" parent="1" vertex="1">
          <mxGeometry x="-1241" y="-560" width="120" height="120" as="geometry" />
        </mxCell>
        <mxCell id="ILn246hxc0myOcRo-HGs-7" value="MarcaAutomovil" style="swimlane;whiteSpace=wrap;html=1;strokeColor=#330066;fillColor=#00FF00;startSize=23;" parent="1" vertex="1">
          <mxGeometry x="-1119" y="-720" width="120" height="120" as="geometry" />
        </mxCell>
        <mxCell id="ILn246hxc0myOcRo-HGs-8" value="Accesorios" style="swimlane;whiteSpace=wrap;html=1;strokeColor=#330066;fillColor=#00FF00;startSize=23;" parent="1" vertex="1">
          <mxGeometry x="-1160" y="-400" width="120" height="120" as="geometry" />
        </mxCell>
        <mxCell id="ILn246hxc0myOcRo-HGs-9" value="PiezasUtilizadas" style="swimlane;whiteSpace=wrap;html=1;strokeColor=#330066;fillColor=#00FF00;startSize=23;" parent="1" vertex="1">
          <mxGeometry x="-1079" y="-240" width="120" height="120" as="geometry" />
        </mxCell>
        <mxCell id="ILn246hxc0myOcRo-HGs-10" value="Seguro" style="swimlane;whiteSpace=wrap;html=1;strokeColor=#330066;fillColor=#00FF00;startSize=23;" parent="1" vertex="1">
          <mxGeometry x="-1361" y="-720" width="120" height="120" as="geometry" />
        </mxCell>
        <mxCell id="ILn246hxc0myOcRo-HGs-17" style="edgeStyle=orthogonalEdgeStyle;rounded=0;orthogonalLoop=1;jettySize=auto;html=1;exitX=0.5;exitY=0;exitDx=0;exitDy=0;entryX=0;entryY=0.5;entryDx=0;entryDy=0;" parent="1" source="ILn246hxc0myOcRo-HGs-11" target="ILn246hxc0myOcRo-HGs-12" edge="1">
          <mxGeometry relative="1" as="geometry" />
        </mxCell>
        <mxCell id="ILn246hxc0myOcRo-HGs-18" style="edgeStyle=orthogonalEdgeStyle;rounded=0;orthogonalLoop=1;jettySize=auto;html=1;exitX=0.5;exitY=1;exitDx=0;exitDy=0;entryX=0;entryY=0.5;entryDx=0;entryDy=0;" parent="1" source="ILn246hxc0myOcRo-HGs-11" target="ILn246hxc0myOcRo-HGs-16" edge="1">
          <mxGeometry relative="1" as="geometry" />
        </mxCell>
        <mxCell id="ILn246hxc0myOcRo-HGs-20" style="edgeStyle=orthogonalEdgeStyle;rounded=0;orthogonalLoop=1;jettySize=auto;html=1;exitX=0.5;exitY=1;exitDx=0;exitDy=0;entryX=0;entryY=0.5;entryDx=0;entryDy=0;" parent="1" source="ILn246hxc0myOcRo-HGs-11" target="ILn246hxc0myOcRo-HGs-19" edge="1">
          <mxGeometry relative="1" as="geometry" />
        </mxCell>
        <mxCell id="ILn246hxc0myOcRo-HGs-11" value="&lt;font color=&quot;#ffffff&quot;&gt;InformacionPersonal&lt;/font&gt;" style="swimlane;whiteSpace=wrap;html=1;strokeColor=#9673a6;fillColor=#B266FF;" parent="1" vertex="1">
          <mxGeometry x="-959" y="-2199" width="159" height="120" as="geometry" />
        </mxCell>
        <mxCell id="ILn246hxc0myOcRo-HGs-12" value="&lt;div&gt;&lt;font color=&quot;#ffffff&quot;&gt;TipoDocumento&lt;/font&gt;&lt;/div&gt;" style="swimlane;whiteSpace=wrap;html=1;strokeColor=#9673a6;fillColor=#B266FF;" parent="1" vertex="1">
          <mxGeometry x="-760" y="-2319" width="121" height="120" as="geometry" />
        </mxCell>
        <mxCell id="ILn246hxc0myOcRo-HGs-13" value="TipoAutomovil" style="swimlane;whiteSpace=wrap;html=1;strokeColor=#330066;fillColor=#00FF00;startSize=23;" parent="1" vertex="1">
          <mxGeometry x="-1239" y="-880" width="120" height="120" as="geometry" />
        </mxCell>
        <mxCell id="ILn246hxc0myOcRo-HGs-16" value="&lt;font color=&quot;#ffffff&quot;&gt;Telefono&lt;/font&gt;" style="swimlane;whiteSpace=wrap;html=1;strokeColor=#9673a6;fillColor=#B266FF;" parent="1" vertex="1">
          <mxGeometry x="-760" y="-2079" width="121" height="120" as="geometry" />
        </mxCell>
        <mxCell id="ILn246hxc0myOcRo-HGs-19" value="&lt;font color=&quot;#ffffff&quot;&gt;Correo&lt;/font&gt;" style="swimlane;whiteSpace=wrap;html=1;strokeColor=#9673a6;fillColor=#B266FF;" parent="1" vertex="1">
          <mxGeometry x="-760" y="-1919" width="121" height="120" as="geometry" />
        </mxCell>
        <mxCell id="sHfeXuW7Db1C12ehNsMq-1" value="InfomacionPersonal" style="swimlane;whiteSpace=wrap;html=1;fillColor=#d5e8d4;strokeColor=#82b366;gradientColor=#97d077;" parent="1" vertex="1" collapsed="1">
          <mxGeometry x="80" y="560" width="160" height="40" as="geometry">
            <mxRectangle x="400" y="-120" width="200" height="180" as="alternateBounds" />
          </mxGeometry>
        </mxCell>
        <mxCell id="sHfeXuW7Db1C12ehNsMq-2" value="&lt;div&gt;Id_InformacionPersonal&lt;/div&gt;&lt;div&gt;Nombres&lt;/div&gt;&lt;div&gt;Apellidos&lt;/div&gt;&lt;div&gt;Documento&lt;/div&gt;&lt;div&gt;Id_TipoDocumento&lt;/div&gt;&lt;div&gt;Nacimiento&lt;/div&gt;&lt;div&gt;Sexo&lt;/div&gt;&lt;div&gt;Id_Telefono&lt;/div&gt;" style="rounded=0;whiteSpace=wrap;html=1;" parent="sHfeXuW7Db1C12ehNsMq-1" vertex="1">
          <mxGeometry x="10" y="31" width="180" height="139" as="geometry" />
        </mxCell>
        <mxCell id="sHfeXuW7Db1C12ehNsMq-3" value="Telefono" style="swimlane;whiteSpace=wrap;html=1;fillColor=#d5e8d4;strokeColor=#82b366;gradientColor=#97d077;" parent="1" vertex="1" collapsed="1">
          <mxGeometry x="80" y="-321" width="120" height="40" as="geometry">
            <mxRectangle x="430" y="-250" width="130" height="90" as="alternateBounds" />
          </mxGeometry>
        </mxCell>
        <mxCell id="sHfeXuW7Db1C12ehNsMq-4" value="Id_Telefono&lt;br&gt;Telefono" style="rounded=0;whiteSpace=wrap;html=1;" parent="sHfeXuW7Db1C12ehNsMq-3" vertex="1">
          <mxGeometry x="10" y="31" width="110" height="49" as="geometry" />
        </mxCell>
        <mxCell id="sHfeXuW7Db1C12ehNsMq-5" value="TipoDocumento" style="swimlane;whiteSpace=wrap;html=1;fillColor=#d5e8d4;strokeColor=#82b366;gradientColor=#97d077;" parent="1" vertex="1" collapsed="1">
          <mxGeometry x="80" y="-400" width="120" height="40" as="geometry">
            <mxRectangle x="900" y="-190" width="170" height="110" as="alternateBounds" />
          </mxGeometry>
        </mxCell>
        <mxCell id="sHfeXuW7Db1C12ehNsMq-6" value="Id_Tipo&lt;br&gt;Nombre&lt;br&gt;Abreviatura" style="rounded=0;whiteSpace=wrap;html=1;" parent="sHfeXuW7Db1C12ehNsMq-5" vertex="1">
          <mxGeometry x="10" y="31" width="150" height="69" as="geometry" />
        </mxCell>
        <mxCell id="sHfeXuW7Db1C12ehNsMq-7" value="Usuarios" style="swimlane;whiteSpace=wrap;html=1;fillColor=#d5e8d4;strokeColor=#82b366;gradientColor=#97d077;" parent="1" vertex="1" collapsed="1">
          <mxGeometry x="80" y="240" width="120" height="40" as="geometry">
            <mxRectangle x="750" y="-47" width="170" height="140" as="alternateBounds" />
          </mxGeometry>
        </mxCell>
        <mxCell id="sHfeXuW7Db1C12ehNsMq-8" value="Id_Usuario&lt;br&gt;Id_Correo&lt;br&gt;Clave&lt;br&gt;Id_Cargo&lt;br&gt;Id_InformacionPersonal" style="rounded=0;whiteSpace=wrap;html=1;" parent="sHfeXuW7Db1C12ehNsMq-7" vertex="1">
          <mxGeometry x="10" y="31" width="150" height="99" as="geometry" />
        </mxCell>
        <mxCell id="sHfeXuW7Db1C12ehNsMq-9" value="Usuarios" style="swimlane;whiteSpace=wrap;html=1;fillColor=#d5e8d4;strokeColor=#82b366;gradientColor=#97d077;" parent="1" vertex="1" collapsed="1">
          <mxGeometry x="80" y="163" width="120" height="40" as="geometry">
            <mxRectangle x="480" y="80" width="170" height="140" as="alternateBounds" />
          </mxGeometry>
        </mxCell>
        <mxCell id="sHfeXuW7Db1C12ehNsMq-10" value="Id_Usuario&lt;br&gt;Id_Email&lt;br&gt;Password&lt;br&gt;Id_Cargo&lt;br&gt;Id_InformacionPersonal&lt;br&gt;" style="rounded=0;whiteSpace=wrap;html=1;" parent="sHfeXuW7Db1C12ehNsMq-9" vertex="1">
          <mxGeometry x="10" y="31" width="150" height="99" as="geometry" />
        </mxCell>
      </root>
    </mxGraphModel>
  </diagram>
</mxfile>
